<mxfile host="app.diagrams.net" agent="Mozilla/5.0 (Windows NT 10.0; Win64; x64; rv:133.0) Gecko/20100101 Firefox/133.0" version="26.0.5">
  <diagram name="Page-1" id="KH_nq3rs7vA6ZGu3bwKK">
    <mxGraphModel dx="5250" dy="2830" grid="1" gridSize="10" guides="0" tooltips="1" connect="1" arrows="1" fold="1" page="1" pageScale="1" pageWidth="827" pageHeight="1169" background="#D4E1F5" math="0" shadow="0">
      <root>
        <mxCell id="0" />
        <mxCell id="1" parent="0" />
        <mxCell id="UKRKsNbsrZ3EIyGasmf7-16" value="" style="html=1;rounded=1;edgeStyle=orthogonalEdgeStyle;dashed=0;startArrow=none;endArrow=block;endSize=12;strokeColor=#000082;exitX=0.500;exitY=0.000;exitDx=0;exitDy=0;entryX=0.500;entryY=1.000;entryDx=0;entryDy=0;" edge="1" parent="1" source="UKRKsNbsrZ3EIyGasmf7-13">
          <mxGeometry width="50" height="50" relative="1" as="geometry">
            <Array as="points">
              <mxPoint x="-656.5" y="-353" />
              <mxPoint x="-478.5" y="-353" />
            </Array>
            <mxPoint x="-478.5" y="-378" as="targetPoint" />
          </mxGeometry>
        </mxCell>
        <mxCell id="UKRKsNbsrZ3EIyGasmf7-21" value="" style="html=1;rounded=1;edgeStyle=orthogonalEdgeStyle;dashed=0;startArrow=none;endArrow=block;endSize=12;strokeColor=#000082;exitX=0.500;exitY=0.000;exitDx=0;exitDy=0;entryX=0.500;entryY=1.000;entryDx=0;entryDy=0;" edge="1" parent="1" source="UKRKsNbsrZ3EIyGasmf7-18">
          <mxGeometry width="50" height="50" relative="1" as="geometry">
            <Array as="points">
              <mxPoint x="-638" y="297" />
              <mxPoint x="-460" y="297" />
            </Array>
            <mxPoint x="-460" y="272" as="targetPoint" />
          </mxGeometry>
        </mxCell>
        <mxCell id="UKRKsNbsrZ3EIyGasmf7-33" value="" style="html=1;rounded=1;edgeStyle=orthogonalEdgeStyle;dashed=0;startArrow=none;endArrow=block;endSize=12;strokeColor=#000082;exitX=0.500;exitY=0.000;exitDx=0;exitDy=0;entryX=0.500;entryY=1.000;entryDx=0;entryDy=0;" edge="1" parent="1" source="UKRKsNbsrZ3EIyGasmf7-30">
          <mxGeometry width="50" height="50" relative="1" as="geometry">
            <Array as="points">
              <mxPoint x="-638" y="1537" />
              <mxPoint x="-460" y="1537" />
            </Array>
            <mxPoint x="-460" y="1512" as="targetPoint" />
          </mxGeometry>
        </mxCell>
      </root>
    </mxGraphModel>
  </diagram>
</mxfile>
